# xmcd CD database file
#
# Track frame offsets:
#	150
#	12000
#	34606
#	51214
#	96520
#	167322
#	200965
#	216211
#	262963
#	266910
#	310341
#
# Disc length: 4542 seconds
#
# Revision: 0
# Processed by: cddbd v1.5.2PL0 Copyright (c) Steve Scherf et al.
# Submitted via: CDex 1.70beta2
#
DISCID=9a11bc0b
DTITLE=The Allman Brothers Band - Live at Morrison, CO - Sept  5, 2009
DYEAR=2009
DGENRE=Blues
TTITLE0=Don't Want You No More
TTITLE1=It's Not My Cross To Bear
TTITLE2=Done Somebody Wrong
TTITLE3=No One to Run With
TTITLE4=Rockin' Horse
TTITLE5=Soulshine
TTITLE6=Midnight Rider
TTITLE7=The Same Thing
TTITLE8=Announcements
TTITLE9=Anyday
TTITLE10=Lost Lover Blues
EXTD=YEAR: 2009
EXTT0=
EXTT1=
EXTT2=
EXTT3=
EXTT4=
EXTT5=
EXTT6=
EXTT7=
EXTT8=
EXTT9=
EXTT10=
PLAYORDER=
